<svg width="18" height="18" viewBox="0 0 18 18" fill="none" xmlns="http://www.w3.org/2000/svg">
<path d="M1.75 0H16.25C17.216 0 18 0.784 18 1.75V16.25C18 16.7141 17.8156 17.1592 17.4874 17.4874C17.1592 17.8156 16.7141 18 16.25 18H1.75C1.28587 18 0.840752 17.8156 0.512563 17.4874C0.184375 17.1592 0 16.7141 0 16.25V1.75C0 0.784 0.784 0 1.75 0ZM16.25 1.5H1.75C1.6837 1.5 1.62011 1.52634 1.57322 1.57322C1.52634 1.62011 1.5 1.6837 1.5 1.75V16.25C1.5 16.388 1.612 16.5 1.75 16.5H1.94L11.763 6.677C11.9255 6.51448 12.1184 6.38556 12.3308 6.2976C12.5431 6.20964 12.7707 6.16437 13.0005 6.16437C13.2303 6.16437 13.4579 6.20964 13.6702 6.2976C13.8826 6.38556 14.0755 6.51448 14.238 6.677L16.5 8.939V1.75C16.5 1.6837 16.4737 1.62011 16.4268 1.57322C16.3799 1.52634 16.3163 1.5 16.25 1.5ZM16.5 11.06L13.177 7.737C13.1538 7.71372 13.1262 7.69525 13.0958 7.68264C13.0654 7.67004 13.0329 7.66355 13 7.66355C12.9671 7.66355 12.9346 7.67004 12.9042 7.68264C12.8738 7.69525 12.8462 7.71372 12.823 7.737L4.061 16.5H16.25C16.3163 16.5 16.3799 16.4737 16.4268 16.4268C16.4737 16.3799 16.5 16.3163 16.5 16.25V11.06ZM5.5 8C4.83696 8 4.20107 7.73661 3.73223 7.26777C3.26339 6.79893 3 6.16304 3 5.5C3 4.83696 3.26339 4.20107 3.73223 3.73223C4.20107 3.26339 4.83696 3 5.5 3C6.16304 3 6.79893 3.26339 7.26777 3.73223C7.73661 4.20107 8 4.83696 8 5.5C8 6.16304 7.73661 6.79893 7.26777 7.26777C6.79893 7.73661 6.16304 8 5.5 8ZM5.5 6.5C5.76522 6.5 6.01957 6.39464 6.20711 6.20711C6.39464 6.01957 6.5 5.76522 6.5 5.5C6.5 5.23478 6.39464 4.98043 6.20711 4.79289C6.01957 4.60536 5.76522 4.5 5.5 4.5C5.23478 4.5 4.98043 4.60536 4.79289 4.79289C4.60536 4.98043 4.5 5.23478 4.5 5.5C4.5 5.76522 4.60536 6.01957 4.79289 6.20711C4.98043 6.39464 5.23478 6.5 5.5 6.5Z" fill="white"/>
</svg>
